<?xml version="1.0" encoding="UTF-8"?>
<svg id="Capa_1" xmlns="http://www.w3.org/2000/svg" version="1.1" viewBox="0 0 425.2 283.46">
  <!-- Generator: Adobe Illustrator 30.0.0, SVG Export Plug-In . SVG Version: 2.1.1 Build 123)  -->
  <defs>
    <style>
      .st0 {
        fill: #fff;
      }

      .st1 {
        fill: #e6322f;
      }

      .st2 {
        isolation: isolate;
      }

      .st3 {
        fill: #371b46;
      }
    </style>
  </defs>
  <g class="st2">
    <path class="st1" d="M160.14,101.04h7.86v33.06h-7.86v-19l-10.06,17.92h-5.28l-10.06-17.17v18.26h-7.86v-31.77l7.86-2.12,12.77,23.37,12.64-22.54Z"/>
    <path class="st1" d="M174.36,101.04h7.86v33.06h-7.86v-33.06Z"/>
    <path class="st3" d="M213.37,121.09c-3.74,0-6.65-.98-8.73-2.95-2.08-1.97-3.12-4.31-3.12-7.03s1.05-5.11,3.14-7.09c2.09-1.98,5-2.97,8.71-2.97h22.46l-2.12,7.03h-20.25c-1.14,0-2.02.31-2.66.91-.64.61-.96,1.32-.96,2.12s.32,1.54.96,2.12c.64.58,1.52.87,2.66.87h11.39c3.66,0,6.53.99,8.61,2.97,2.08,1.98,3.12,4.33,3.12,7.05s-1.03,5.03-3.08,7.01c-2.05,1.98-4.94,2.97-8.65,2.97h-23.33l2.12-7.03h21.13c1.14,0,2.02-.28,2.66-.85.64-.57.96-1.27.96-2.1s-.32-1.51-.96-2.12c-.64-.61-1.53-.91-2.66-.91h-11.39Z"/>
    <path class="st3" d="M276.52,109.86c1.04,2.25,1.56,4.82,1.56,7.73s-.52,5.48-1.56,7.71c-1.04,2.23-2.48,4.03-4.32,5.41-1.84,1.37-3.94,2.4-6.3,3.08-2.36.68-4.94,1.02-7.73,1.02s-5.18-.35-7.49-1.06c-2.3-.71-4.35-1.75-6.13-3.14-1.79-1.39-3.19-3.19-4.2-5.43-1.01-2.23-1.52-4.76-1.52-7.59s.51-5.36,1.52-7.59c1.01-2.23,2.41-4.04,4.2-5.43,1.79-1.39,3.83-2.44,6.13-3.16,2.3-.72,4.8-1.08,7.49-1.08s5.38.34,7.73,1.02c2.36.68,4.46,1.7,6.3,3.08,1.84,1.37,3.29,3.18,4.32,5.43ZM249.94,109.86c-1.87,1.58-2.81,4.16-2.81,7.73s.93,6.15,2.79,7.71c1.86,1.57,4.74,2.35,8.65,2.35s6.54-.8,8.4-2.41c1.86-1.61,2.79-4.16,2.79-7.65s-.93-6.05-2.79-7.67c-1.86-1.62-4.66-2.43-8.4-2.43s-6.76.79-8.63,2.37Z"/>
    <path class="st3" d="M307.15,101.04h7.86v33.06h-7.86l-17.3-21.79v21.79h-7.86v-31.77l7.86-2.12,17.3,21.79v-20.96Z"/>
    <path class="st3" d="M321.41,101.04h7.86v33.06h-7.86v-33.06Z"/>
    <path class="st3" d="M335.63,112.98l7.86-2.12v16.22h12.39c2.05,0,3.67-.96,4.84-2.89,1.18-1.93,1.77-4.19,1.77-6.8s-.58-4.74-1.73-6.57c-1.15-1.83-2.78-2.74-4.89-2.74h-20.25l2.12-7.03h19.09c2.22,0,4.23.49,6.05,1.46,1.82.97,3.29,2.25,4.41,3.85,1.12,1.59,1.99,3.38,2.6,5.36.61,1.98.91,4.04.91,6.18s-.29,4.11-.87,6.01c-.58,1.9-1.43,3.62-2.56,5.16s-2.59,2.77-4.41,3.68c-1.82.91-3.86,1.37-6.13,1.37h-21.21v-21.13Z"/>
    <path class="st3" d="M410.01,109.86c1.04,2.25,1.56,4.82,1.56,7.73s-.52,5.48-1.56,7.71c-1.04,2.23-2.48,4.03-4.32,5.41-1.84,1.37-3.94,2.4-6.3,3.08-2.36.68-4.94,1.02-7.73,1.02s-5.18-.35-7.49-1.06c-2.3-.71-4.35-1.75-6.13-3.14-1.79-1.39-3.19-3.19-4.2-5.43-1.01-2.23-1.52-4.76-1.52-7.59s.51-5.36,1.52-7.59c1.01-2.23,2.41-4.04,4.2-5.43,1.79-1.39,3.83-2.44,6.13-3.16,2.3-.72,4.8-1.08,7.49-1.08s5.38.34,7.73,1.02c2.36.68,4.46,1.7,6.3,3.08,1.84,1.37,3.29,3.18,4.32,5.43ZM383.43,109.86c-1.87,1.58-2.81,4.16-2.81,7.73s.93,6.15,2.79,7.71c1.86,1.57,4.74,2.35,8.65,2.35s6.54-.8,8.4-2.41c1.86-1.61,2.79-4.16,2.79-7.65s-.93-6.05-2.79-7.67c-1.86-1.62-4.66-2.43-8.4-2.43s-6.76.79-8.63,2.37Z"/>
  </g>
  <g>
    <g>
      <g>
        <path class="st3" d="M53.88,137.92H19.06c-3,0-5.43,2.43-5.43,5.43v40.94c0,3,2.43,5.43,5.43,5.43h34.81c3,0,5.43-2.43,5.43-5.43v-40.94c0-3-2.43-5.43-5.43-5.43Z"/>
        <g>
          <circle class="st0" cx="36.47" cy="163.83" r="16.67"/>
          <g>
            <path class="st1" d="M36.47,172.84c-4.97,0-9.01-4.04-9.01-9.01s4.04-9.01,9.01-9.01,9.01,4.04,9.01,9.01-4.04,9.01-9.01,9.01Z"/>
            <path class="st3" d="M36.47,155.69c4.49,0,8.14,3.65,8.14,8.14s-3.65,8.14-8.14,8.14-8.14-3.65-8.14-8.14c0-4.49,3.65-8.14,8.14-8.14M36.47,153.95c-5.45,0-9.88,4.42-9.88,9.88s4.42,9.88,9.88,9.88,9.88-4.42,9.88-9.88-4.42-9.88-9.88-9.88h0Z"/>
          </g>
        </g>
        <g>
          <g>
            <circle class="st0" cx="18.92" cy="143.37" r="1.38"/>
            <circle class="st0" cx="54.02" cy="143.37" r="1.38"/>
          </g>
          <g>
            <path class="st0" d="M20.3,184.29c0,.76-.62,1.38-1.38,1.38s-1.38-.62-1.38-1.38.62-1.38,1.38-1.38c.76,0,1.38.62,1.38,1.38Z"/>
            <path class="st0" d="M55.39,184.29c0,.76-.62,1.38-1.38,1.38s-1.38-.62-1.38-1.38.62-1.38,1.38-1.38c.76,0,1.38.62,1.38,1.38Z"/>
          </g>
        </g>
        <g>
          <rect class="st3" x="20.96" y="189.73" width="8.28" height="2.61"/>
          <rect class="st3" x="43.7" y="189.73" width="8.28" height="2.61"/>
        </g>
      </g>
      <g>
        <path class="st3" d="M163.46,137.92h-34.81c-3,0-5.43,2.43-5.43,5.43v40.94c0,3,2.43,5.43,5.43,5.43h34.81c3,0,5.43-2.43,5.43-5.43v-40.94c0-3-2.43-5.43-5.43-5.43Z"/>
        <g>
          <circle class="st0" cx="146.05" cy="163.83" r="16.67"/>
          <g>
            <path class="st1" d="M146.05,172.84c-4.97,0-9.01-4.04-9.01-9.01s4.04-9.01,9.01-9.01,9.01,4.04,9.01,9.01-4.04,9.01-9.01,9.01Z"/>
            <path class="st3" d="M146.05,155.69c4.49,0,8.14,3.65,8.14,8.14s-3.65,8.14-8.14,8.14-8.14-3.65-8.14-8.14,3.65-8.14,8.14-8.14M146.05,153.95c-5.45,0-9.88,4.42-9.88,9.88s4.42,9.88,9.88,9.88,9.88-4.42,9.88-9.88-4.42-9.88-9.88-9.88h0Z"/>
          </g>
        </g>
        <g>
          <g>
            <circle class="st0" cx="128.51" cy="143.37" r="1.38"/>
            <circle class="st0" cx="163.6" cy="143.37" r="1.38"/>
          </g>
          <g>
            <path class="st0" d="M129.88,184.29c0,.76-.62,1.38-1.38,1.38s-1.38-.62-1.38-1.38.62-1.38,1.38-1.38c.76,0,1.38.62,1.38,1.38Z"/>
            <path class="st0" d="M164.98,184.29c0,.76-.62,1.38-1.38,1.38s-1.38-.62-1.38-1.38.62-1.38,1.38-1.38c.76,0,1.38.62,1.38,1.38Z"/>
          </g>
        </g>
        <g>
          <rect class="st3" x="130.55" y="189.73" width="8.28" height="2.61"/>
          <rect class="st3" x="153.28" y="189.73" width="8.28" height="2.61"/>
        </g>
      </g>
    </g>
    <g>
      <g>
        <path class="st3" d="M118.52,88.68h-54.51c-3,0-5.43,2.43-5.43,5.43v91.51c0,3,2.43,5.43,5.43,5.43h54.51c3,0,5.43-2.43,5.43-5.43v-91.51c0-3-2.43-5.43-5.43-5.43Z"/>
        <g>
          <g>
            <circle class="st0" cx="91.26" cy="156.54" r="23.86"/>
            <g>
              <circle class="st1" cx="91.26" cy="156.53" r="11.69"/>
              <path class="st3" d="M91.26,145.72c5.96,0,10.82,4.85,10.82,10.82s-4.85,10.82-10.82,10.82-10.82-4.85-10.82-10.82,4.85-10.82,10.82-10.82M91.26,143.98c-6.94,0-12.56,5.62-12.56,12.56s5.62,12.56,12.56,12.56,12.56-5.62,12.56-12.56-5.62-12.56-12.56-12.56h0Z"/>
            </g>
            <path class="st3" d="M91.26,174.17c-9.72,0-17.64-7.91-17.64-17.64s7.91-17.64,17.64-17.64,17.64,7.91,17.64,17.64-7.91,17.64-17.64,17.64ZM91.26,139.77c-9.25,0-16.77,7.52-16.77,16.77s7.52,16.77,16.77,16.77,16.77-7.52,16.77-16.77-7.52-16.77-16.77-16.77Z"/>
          </g>
          <g>
            <circle class="st0" cx="91.26" cy="112.52" r="13.18"/>
            <g>
              <circle class="st1" cx="91.25" cy="112.52" r="6.07"/>
              <path class="st3" d="M91.26,107.32c2.87,0,5.2,2.33,5.2,5.2s-2.33,5.2-5.2,5.2-5.2-2.33-5.2-5.2c0-2.87,2.33-5.2,5.2-5.2M91.26,105.58c-3.83,0-6.94,3.11-6.94,6.94s3.11,6.94,6.94,6.94,6.94-3.11,6.94-6.94-3.11-6.94-6.94-6.94h0Z"/>
            </g>
          </g>
        </g>
        <g>
          <g>
            <path class="st0" d="M68.12,96.89c0,1.09-.88,1.97-1.97,1.97s-1.97-.88-1.97-1.97.88-1.97,1.97-1.97,1.97.88,1.97,1.97Z"/>
            <path class="st0" d="M118.35,96.89c0,1.09-.88,1.97-1.97,1.97s-1.97-.88-1.97-1.97.88-1.97,1.97-1.97,1.97.88,1.97,1.97Z"/>
          </g>
          <g>
            <path class="st0" d="M68.12,182.84c0,1.09-.88,1.97-1.97,1.97s-1.97-.88-1.97-1.97.88-1.97,1.97-1.97,1.97.88,1.97,1.97Z"/>
            <path class="st0" d="M118.35,182.84c0,1.09-.88,1.97-1.97,1.97s-1.97-.88-1.97-1.97.88-1.97,1.97-1.97,1.97.88,1.97,1.97Z"/>
          </g>
        </g>
      </g>
      <g>
        <rect class="st3" x="69.07" y="191.05" width="11.85" height="3.73"/>
        <rect class="st3" x="101.6" y="191.05" width="11.85" height="3.73"/>
      </g>
    </g>
  </g>
  <g>
    <path class="st3" d="M173.24,140.12h-2.67v-1.57h7.28v1.57h-2.67v6.78h-1.93v-6.78Z"/>
    <path class="st3" d="M184.62,143.22v-4.68h1.93v4.61c0,1.59.69,2.24,1.86,2.24s1.86-.66,1.86-2.24v-4.61h1.91v4.68c0,2.46-1.41,3.82-3.78,3.82s-3.78-1.36-3.78-3.82Z"/>
    <path class="st3" d="M216.96,146.9v-5.01s-2.47,4.13-2.47,4.13h-.87l-2.45-4.02v4.9h-1.81v-8.35h1.6l3.13,5.19,3.08-5.19h1.59l.02,8.35h-1.81Z"/>
    <path class="st3" d="M226.63,143.22v-4.68h1.93v4.61c0,1.59.69,2.24,1.86,2.24s1.86-.66,1.86-2.24v-4.61h1.91v4.68c0,2.46-1.41,3.82-3.78,3.82s-3.78-1.36-3.78-3.82Z"/>
    <path class="st3" d="M241.39,146.08l.66-1.46c.7.51,1.75.87,2.76.87,1.15,0,1.61-.38,1.61-.9,0-1.56-4.86-.49-4.86-3.59,0-1.42,1.15-2.6,3.52-2.6,1.05,0,2.12.25,2.9.74l-.6,1.47c-.78-.44-1.57-.66-2.32-.66-1.15,0-1.59.43-1.59.95,0,1.54,4.86.48,4.86,3.54,0,1.4-1.16,2.59-3.54,2.59-1.32,0-2.66-.39-3.4-.97Z"/>
    <path class="st3" d="M255.61,138.55h1.93v8.35h-1.93v-8.35Z"/>
    <path class="st3" d="M264.94,142.72c0-2.52,1.93-4.32,4.53-4.32,1.44,0,2.65.53,3.44,1.48l-1.24,1.15c-.56-.64-1.27-.98-2.1-.98-1.56,0-2.67,1.1-2.67,2.67s1.11,2.67,2.67,2.67c.84,0,1.54-.33,2.1-.99l1.24,1.15c-.79.97-1.99,1.49-3.45,1.49-2.59,0-4.52-1.8-4.52-4.32Z"/>
    <path class="st3" d="M285.49,145.11h-3.88l-.74,1.79h-1.98l3.72-8.35h1.91l3.74,8.35h-2.03l-.74-1.79ZM284.88,143.64l-1.32-3.2-1.32,3.2h2.65Z"/>
    <path class="st3" d="M312,146.9v-5.01s-2.47,4.13-2.47,4.13h-.87l-2.45-4.02v4.9h-1.81v-8.35h1.6l3.13,5.19,3.08-5.19h1.59l.02,8.35h-1.81Z"/>
    <path class="st3" d="M327.24,145.11h-3.88l-.74,1.79h-1.98l3.72-8.35h1.91l3.74,8.35h-2.03l-.74-1.79ZM326.63,143.64l-1.32-3.2-1.32,3.2h2.65Z"/>
    <path class="st3" d="M336.17,146.08l.66-1.46c.7.51,1.75.87,2.76.87,1.15,0,1.61-.38,1.61-.9,0-1.56-4.86-.49-4.86-3.59,0-1.42,1.15-2.6,3.52-2.6,1.05,0,2.12.25,2.9.74l-.6,1.47c-.78-.44-1.57-.66-2.32-.66-1.15,0-1.59.43-1.59.95,0,1.54,4.86.48,4.86,3.54,0,1.4-1.16,2.59-3.54,2.59-1.32,0-2.66-.39-3.4-.97Z"/>
    <path class="st3" d="M367.74,138.55l-3.62,8.35h-1.91l-3.6-8.35h2.09l2.54,5.97,2.58-5.97h1.92Z"/>
    <path class="st3" d="M374.37,138.55h1.93v8.35h-1.93v-8.35Z"/>
    <path class="st3" d="M392.21,138.55l-3.62,8.35h-1.91l-3.6-8.35h2.09l2.54,5.97,2.58-5.97h1.92Z"/>
    <path class="st3" d="M404.08,145.11h-3.88l-.74,1.79h-1.98l3.72-8.35h1.91l3.74,8.35h-2.03l-.74-1.79ZM403.47,143.64l-1.32-3.2-1.32,3.2h2.65Z"/>
  </g>
</svg>